<?xml version="1.0" encoding="UTF-8"?>
<svg id="Layer_1" data-name="Layer 1" xmlns="http://www.w3.org/2000/svg" viewBox="0 0 380.1 205.3"
   width="268"
   height="131">
    <defs>
        <style>
            .cls-1 {
            fill: #017ec6;
            }

            .cls-2 {
            fill: #007ec6;
            }

            .cls-3 {
            fill: #fff;
            }

            .cls-4 {
            fill: #19c1f3;
            }
        </style>
    </defs>
    <path class="cls-3"
        d="m337.04,203.5c-.15-.17-.28-.42-.47-.51-.88-.37-1.87-.58-2.65-1.09-.37-.24-.63-1.13-.47-1.55.18-.47.85-.94,1.38-1.05.53-.11,1.16.31,1.75.33,1.73.08,3.51.31,5.2.06,1.72-.25,2.56-1.83,2.4-3.79-.4.14-.83.19-1.12.42-2.24,1.81-4.58,1.88-7.02.45-2.27-1.33-3.28-3.38-3.52-5.96-.27-2.95,2.4-6.31,4.7-6.92,2.21-.59,4.45-.12,6.68,1.7.2-.22.5-.41.6-.68.51-1.32,1.64-.96,2.54-.86.92.1,1.36.93,1.34,1.81-.08,4.29-.03,8.6-.39,12.88-.18,2.14-1.91,3.42-3.99,4.05-.43.13-.8.48-1.19.73-1.92,0-3.83,0-5.75,0Zm3.39-16.25c-2.09,0-3.63,1.41-3.64,3.32,0,2,1.55,3.71,3.47,3.67,2.43-.06,3.96-1.56,3.99-3.77.03-1.93-1.39-3.21-3.81-3.22Z" />
    <path class="cls-3"
        d="m376.79,186.25c-.94.63-1.83,1.33-2.82,1.87-1.92,1.05-2.3,2.85-2.42,4.76-.08,1.29,0,2.58,0,3.87,0,1.37-.81,2.25-2.08,2.26-1.35.01-2.12-.79-2.12-2.23,0-3.29,0-6.58.02-9.87,0-.5.1-.99.14-1.49.08-.99.8-1.51,1.61-1.55.59-.03,1.28.37,1.79.76.38.29.53.88.87,1.48.39-.47.72-.89,1.08-1.3,1.31-1.51,2.35-1.41,3.48.29.11.16.3.26.46.39v.75Z" />
    <path class="cls-3"
        d="m2.54,16.75h0c-.31-.64-.37-1.38-.16-2.06.65-2.12,1.52-4.13,2.96-5.87,2.77-3.35,6.24-5.34,10.7-5.36,1.42-.06,2.84-.12,4.26-.18,4.44.02,8.88.04,13.32.05,7.48.01,14.95.01,22.43.01.25,0,.49-.04.74-.07,1.67.06,3.34.12,5.01.18.16,0,.32,0,.49,0,.17,0,.34,0,.51,0,9.01.06,17.66,2.03,26.05,5.11,6.58,2.42,12.77,5.68,18.25,10.12,2.72,2.2,5.51,4.36,7.99,6.82,4.4,4.37,7.96,9.4,10.93,14.86,3.56,6.54,5.68,13.54,7.05,20.83.56,2.99,1.04,5.96.99,9.02-.03,2.02.26,4.05.2,6.07-.11,3.84-.42,7.65-1.15,11.45-.69,3.54-1.56,7.02-2.65,10.43-2.22,6.94-5.57,13.5-10.03,19.27-5.73,7.4-12.67,13.38-20.74,18.13-5.13,3.02-10.49,5.39-16.22,6.94-3.3.89-6.6,1.82-9.94,2.54-2.25.49-5.99.9-8.3.93-15.1.2-30.2.33-45.31.44-1.88.01-3.8-.08-5.63-.46-3.98-.84-7.25-2.89-9.58-6.32-1.08-1.58-2-3.22-2.35-5.11-.03-.18-.04-.36-.04-.54l.21-117.23m30.92,14.75c0,1.77,0,3.39,0,5,0,21.92,0,43.83,0,65.75,0,4.42.02,8.83-.01,13.25-.02,2.47-.06,2.43,2.44,2.42,6.79-.03,13.58.08,20.37-.07,3.9-.09,7.82-.39,11.69-.94,3.23-.47,6.34-1.51,9.4-2.77,5.54-2.27,9.99-5.92,13.92-10.23s6.38-9.2,7.82-14.61c.82-3.07,1.61-6.19,1.87-9.32.31-3.74.16-7.56-.24-11.3-.35-3.32-1.06-6.66-2.07-9.85-1.55-4.88-4.18-9.22-7.51-13.16-3.13-3.71-6.77-6.76-11.03-9.01-6.8-3.59-14.17-5-21.77-5.14-7.83-.14-15.66-.03-23.5-.03-.41,0-.83,0-1.39,0Z" />
    <path class="cls-3"
        d="m172.73,102.8c.91,4.22,2.64,8.06,5.27,11.48,3.62,4.72,8.43,7.51,14.19,8.8,3.82.85,7.66.78,11.54.44,4.52-.4,8.81-1.55,12.77-3.69,2.4-1.3,4.57-3,6.92-4.4,1.96-1.17,4.08-1.5,6.41-1.26,1.89.2,3.7.37,5.41,1.3,3.9,2.15,5.64,5.53,6.08,9.85.59,5.87-2.72,9.41-7.01,12.51-4.89,3.53-10.2,6.28-15.93,8.05-3.62,1.12-7.41,1.79-11.18,2.3-3.38.46-6.82.55-10.24.61-5.48.1-10.79-1.05-16.02-2.57-6.35-1.85-12.19-4.73-17.52-8.64-7.1-5.2-12.69-11.69-16.32-19.74-2.18-4.83-3.89-9.83-4.79-15.07-.89-5.2-1.05-10.47-.7-15.7.32-4.78,1.26-9.49,2.71-14.11,2.33-7.4,6.08-13.99,11.05-19.9,5.3-6.31,11.88-10.88,19.4-14.24,4.18-1.87,8.53-3.1,13-3.75,3.39-.5,6.85-.99,10.34-.37,1.41.25,2.89.09,4.3.3,2.93.44,5.88.84,8.74,1.55,5.33,1.32,10.27,3.58,14.83,6.66,3.36,2.27,6.32,4.97,9.14,7.89,3.79,3.92,6.48,8.52,8.65,13.41,1.54,3.47,2.72,7.13,3.72,10.8.72,2.65.92,5.44,1.3,8.17.17,1.22.24,2.46.25,3.69.04,3.63-.95,6.98-3.22,9.83-2.49,3.12-5.85,5.11-9.8,5.16-14.11.19-28.22.12-42.33.14-6.87.01-13.74.02-20.6.03-.1.04-.2.08-.31.12,0,0,0,0,0,0-.01.11-.02.22-.04.33Zm46.57-20.05c-.91-4.69-2.1-9.15-4.62-13.17-2.69-4.29-6.3-7.41-11.17-8.97-3.23-1.03-6.57-.95-9.9-.85-1.57.05-3.17.27-4.67.71-5.09,1.5-8.83,4.76-11.74,9.15-2.47,3.72-4.01,7.76-4.93,12.09-.25,1.17-.09,1.38,1.07,1.28.91-.08,1.82-.16,2.73-.16,13.69,0,27.39,0,41.08,0,.7,0,1.4-.06,2.15-.09Z" />
    <path class="cls-4"
        d="m316.41,115.79c-.42.23-.91.38-1.23.71-10.17,10.15-20.31,20.32-30.49,30.45-2.52,2.51-5.66,3.76-9.18,4.34-8.14,1.34-16.36-4.84-18.13-12.75-1.22-5.44.16-10.5,4.06-14.53,7.42-7.66,15.01-15.16,22.55-22.7,2.77-2.77,5.6-5.47,8.41-8.2.56-.54.61-1.02.03-1.58-5.91-5.81-11.84-11.6-17.71-17.45-4.48-4.47-8.96-8.94-13.31-13.54-8.35-8.83-4.06-23.54,7.73-26.6,5.9-1.53,11.26-.22,15.6,4,10.05,9.75,19.93,19.66,29.88,29.5.57.56,1.21,1.04,1.82,1.55.27.36,14.8,15.06,21.79,22.05.43.43.75.97,1.12,1.45-2.79,2.79-5.56,5.59-8.36,8.36-4.6,4.56-14.32,14.51-14.56,14.93Z" />
    <path class="cls-1"
        d="m339.33,92.5c3.58,3.54,14.68,14.22,18.26,17.77,4.23,4.19,8.41,8.42,12.66,12.59,3.4,3.34,4.87,7.37,5.09,12.1.37,8.27-5.99,14.26-12.02,15.88-3.69.99-7.25.89-10.78-.91-2.67-1.37-4.98-3.08-7.09-5.2-7.35-7.42-14.78-14.77-22.18-22.15-.26-.26-6.62-6.52-6.86-6.79.64-.35,20.32-22.62,22.92-23.29Z" />
    <path class="cls-2"
        d="m316.43,69c4.36-4.29,15.06-14.92,19.4-19.22,3.79-3.75,7.55-7.52,11.33-11.28,2.82-2.82,6.17-4.68,10.14-5.12,7.41-.81,15.39,3.73,17.49,11.87,1.66,6.4-.12,11.82-4.77,16.46-7.89,7.88-15.71,15.83-23.56,23.75-.2.2-6.9,6.86-7.13,7.05-.24-.51-22.79-23.25-22.91-23.5Z" />
    <path class="cls-3"
        d="m266.97,187.61c0,3.13,0,6,0,8.87,0,1.57-.7,2.46-1.95,2.52-1.76.08-2.35-.48-2.36-2.52-.03-4.04,0-8.08.02-12.11,0-1.04.01-2.08.06-3.12.05-1.03.58-1.76,1.59-1.95,1.04-.2,2.1-.12,2.75.9,1.41,2.21,2.77,4.44,4.16,6.66.41.65.84,1.29,1.38,2.12.93-1.54,1.75-2.89,2.57-4.25.85-1.39,1.72-2.77,2.56-4.17.66-1.1,1.62-1.51,2.83-1.27,1.21.24,1.73,1.02,1.72,2.28-.04,4.64-.02,9.28-.02,13.92,0,.42,0,.83,0,1.25,0,1.63-.51,2.24-1.89,2.27-1.49.03-2.31-.73-2.31-2.26,0-2.29.09-4.58.1-6.86,0-.75-.14-1.5-.25-2.6-1.07,1.63-1.98,3.05-2.91,4.45-.34.51-.68,1.02-1.08,1.49-.89,1.06-1.96,1.13-2.8.04-1.04-1.35-1.91-2.84-2.89-4.25-.34-.48-.8-.87-1.29-1.4Z" />
    <path class="cls-3"
        d="m298.6,197.04c-.63,2.47-2.15,2.64-4.57.44-1.27,1.28-2.85,1.81-4.64,1.77-2.15-.05-3.61-1.16-4.48-3.04-.85-1.84-.3-3.54,1.02-4.92,1.23-1.28,2.93-1.53,4.63-1.5,1.31.02,2.61.2,3.92.31.03-1.34-1.07-2.63-2.22-2.58-1.5.06-3,.38-4.5.34-.58-.01-1.27-.59-1.65-1.09-.23-.3-.16-1.27.1-1.44.96-.61,2.01-1.3,3.09-1.43,2.59-.3,5.24-.54,7.48,1.36,1.28,1.08,1.77,2.53,1.83,4.08.11,2.45.03,4.9.03,7.36-.01.11-.02.23-.04.34Zm-6.67-4.56v.03c-.5,0-1.1-.18-1.47.04-.63.38-1.35.91-1.6,1.55-.36.93.15,1.89,1.14,2.1,1.33.28,2.79.22,3.81-.77.49-.48.68-1.47.64-2.21-.01-.27-1.06-.52-1.65-.72-.26-.09-.58-.01-.87-.01Z" />
    <path class="cls-3"
        d="m330.7,197.05c-.6,2.1-2.4,2.67-3.83,1.14-.65-.7-1.06-.4-1.68,0-2.98,1.94-6.82,1.14-8.13-2.13-.77-1.92.08-4.37,1.83-5.31,1.49-.8,3.06-1.27,4.83-.82.86.22,1.81.04,2.72.04.11-1.17-1.06-2.49-2.26-2.46-1.48.03-2.96.09-4.43.26-1.17.14-1.59-.76-1.83-1.46-.13-.39.49-1.3.99-1.57.91-.49,1.97-.86,2.99-.93,1.51-.1,3.07-.08,4.55.22,2.26.45,3.89,1.99,4.12,4.82.21,2.61.14,5.24.19,7.86l-.02.34Zm-6.85-4.55c-.46,0-.93-.08-1.36.02-.91.21-1.63.63-1.71,1.74-.09,1.21.63,1.84,1.62,1.94.94.1,1.95-.11,2.88-.36.84-.22,1.73-1.7,1.48-2.34-.36-.91-1.18-1.02-2.04-1-.29,0-.58,0-.87,0Z" />
    <path class="cls-3"
        d="m354.44,193.61c.73.64,1.4,1.37,2.21,1.89,1.57,1.02,3,.12,4.49-.44.71-.27,1.61-.31,2.33-.1.32.09.59,1.06.52,1.59-.07.48-.55,1.02-.99,1.3-4.79,3.04-10.95,1.01-12.5-4.84-.83-3.15,1.57-8.24,5.14-9.06,5.44-1.26,9.35,1.85,9.49,7.04.03,1.1-.55,1.71-1.61,1.76-2.36.1-4.72.13-7.08.2-.63.02-1.25.11-1.88.16-.04.17-.08.33-.12.5Zm7.01-3.76c-.88-1.46-1.56-2.79-3.4-2.86-1.67-.06-2.51.99-3.26,2.21-.44.72-.22,1.06.61,1.06,1.58,0,3.15.02,4.73-.02.4-.01.8-.23,1.32-.39Z" />
    <path class="cls-3"
        d="m301.16,191.46c0-1.67-.02-3.33,0-5,.02-1.96.64-2.61,2.47-2.43.45.04,1.01.4,1.25.78.56.89,1.09.97,1.72.16,1.36-1.76,3.22-1.37,4.96-1.04,1.88.36,2.99,1.73,3.21,3.59.18,1.57,0,3.17.04,4.76.04,1.44.2,2.87.24,4.31.04,1.45-.85,2.41-2.17,2.45-1.22.04-2.07-.92-2.07-2.4-.01-1.83.03-3.66-.02-5.5-.02-.69-.12-1.39-.31-2.05-.33-1.12-1.39-1.7-2.75-1.6-1.23.09-2.05.81-2.16,1.99-.15,1.61-.08,3.24-.1,4.86,0,.87.06,1.75-.01,2.62-.11,1.32-1.01,2.06-2.33,2.03-1.28-.04-1.89-.6-1.94-2.04-.07-1.83-.02-3.66-.02-5.49h0Z" />
</svg>